<svg xmlns="http://www.w3.org/2000/svg" style="display:none">
  <symbol id="x" viewBox="0 0 24 24">
    <path d="M18 6 6 18M6 6l12 12" fill="none" stroke="currentColor" stroke-width="2" stroke-linecap="round"/>
  </symbol>
  <symbol id="send" viewBox="0 0 24 24">
    <path d="M22 2 11 13" fill="none" stroke="currentColor" stroke-width="2" stroke-linecap="round"/>
    <path d="m22 2-7 20-4-9-9-4Z" fill="none" stroke="currentColor" stroke-width="2" stroke-linejoin="round"/>
  </symbol>
  <symbol id="chevrons-left" viewBox="0 0 24 24">
    <path d="m11 17-5-5 5-5M18 17l-5-5 5-5" fill="none" stroke="currentColor" stroke-width="2" stroke-linecap="round" stroke-linejoin="round"/>
  </symbol>
  <symbol id="chevrons-right" viewBox="0 0 24 24">
    <path d="m13 17 5-5-5-5M6 17l5-5-5-5" fill="none" stroke="currentColor" stroke-width="2" stroke-linecap="round" stroke-linejoin="round"/>
  </symbol>
  <symbol id="chart" viewBox="0 0 24 24">
    <path d="M3 3v18h18" fill="none" stroke="currentColor" stroke-width="2" stroke-linecap="round"/>
    <path d="m7 14 3-3 3 2 4-5" fill="none" stroke="currentColor" stroke-width="2" stroke-linecap="round" stroke-linejoin="round"/>
  </symbol>
  <symbol id="database" viewBox="0 0 24 24">
    <ellipse cx="12" cy="5" rx="8" ry="3" fill="none" stroke="currentColor" stroke-width="2"/>
    <path d="M4 5v6c0 1.7 3.6 3 8 3s8-1.3 8-3V5M4 11v6c0 1.7 3.6 3 8 3s8-1.3 8-3v-6" fill="none" stroke="currentColor" stroke-width="2"/>
  </symbol>
  <symbol id="sparkles" viewBox="0 0 24 24">
    <path d="M12 3 14 8l5 2-5 2-2 5-2-5-5-2 5-2 2-5Z" fill="none" stroke="currentColor" stroke-width="2" stroke-linejoin="round"/>
  </symbol>
  <symbol id="shield-check" viewBox="0 0 24 24">
    <path d="M12 2 4 5v6c0 5 3.4 9.7 8 11 4.6-1.3 8-6 8-11V5l-8-3Z" fill="none" stroke="currentColor" stroke-width="2"/>
    <path d="m9 12 2 2 4-4" fill="none" stroke="currentColor" stroke-width="2" stroke-linecap="round"/>
  </symbol>
  <symbol id="activity" viewBox="0 0 24 24">
    <path d="M22 12h-4l-3 7-4-14-3 7H2" fill="none" stroke="currentColor" stroke-width="2" stroke-linecap="round" stroke-linejoin="round"/>
  </symbol>
  <symbol id="book" viewBox="0 0 24 24">
    <path d="M4 19a3 3 0 0 1 3-3h13M7 4h13v16H7a3 3 0 0 1-3-3V7a3 3 0 0 1 3-3Z" fill="none" stroke="currentColor" stroke-width="2" stroke-linejoin="round"/>
  </symbol>
  <symbol id="list" viewBox="0 0 24 24">
    <path d="M8 6h13M8 12h13M8 18h13M3 6h.01M3 12h.01M3 18h.01" fill="none" stroke="currentColor" stroke-width="2" stroke-linecap="round"/>
  </symbol>
  <symbol id="loader" viewBox="0 0 24 24">
    <path d="M21 12a9 9 0 1 1-9-9" fill="none" stroke="currentColor" stroke-width="2" stroke-linecap="round"/>
  </symbol>
  <symbol id="check-circle" viewBox="0 0 24 24">
    <circle cx="12" cy="12" r="10" fill="none" stroke="currentColor" stroke-width="2"/>
    <path d="m9 12 2 2 4-4" fill="none" stroke="currentColor" stroke-width="2" stroke-linecap="round"/>
  </symbol>
  <symbol id="alert-circle" viewBox="0 0 24 24">
    <circle cx="12" cy="12" r="10" fill="none" stroke="currentColor" stroke-width="2"/>
    <path d="M12 8v5M12 16h.01" fill="none" stroke="currentColor" stroke-width="2" stroke-linecap="round"/>
  </symbol>
  <symbol id="info" viewBox="0 0 24 24">
    <circle cx="12" cy="12" r="10" fill="none" stroke="currentColor" stroke-width="2"/>
    <path d="M12 10v6M12 7h.01" fill="none" stroke="currentColor" stroke-width="2" stroke-linecap="round"/>
  </symbol>
</svg>
